<svg xmlns="http://www.w3.org/2000/svg" width="209" height="101" fill="none" viewBox="0 0 209 101"><path fill="#08144A" d="M10.49 51.115.266 34.334h5.13l7.132 11.714 7.13-11.715h5.132L14.565 51.116zm15.778 0V34.334h18.698v3.605H30.831v2.858h9.823l-1.263 3.606h-8.555v3.104h14.78v3.606zm38.532 0L53.674 39.753v11.369h-4.562V34.334h5.097l11.146 11.414V34.335h4.562v16.78zm21.835-3.606a5.72 5.72 0 0 0 4.363-2.007c.624-.75.974-1.69.993-2.666a4.94 4.94 0 0 0-3.363-4.661 4.9 4.9 0 0 0-2.016-.235H79.4v9.56zm-11.796 3.606V34.334h11.518c6.322 0 10.406 3.364 10.406 8.57a7.38 7.38 0 0 1-3.09 6.084 11.1 11.1 0 0 1-6.76 2.121zm32.586-15.928 1.992-4.666h3.961l-3.595 4.666zm-6.583 15.93V34.336h18.697v3.604h-14.14v2.857h9.817l-1.261 3.606h-8.556v3.105h14.792v3.606zm22.844-.002V34.334h18.695v3.605h-14.135v2.858h9.818l-1.262 3.606h-8.556v3.104h14.787v3.606zm-68.94 33.043V80.39h.822v3.042h2.606v.725zm4.044 0V80.39h3.671v.724h-2.849v.768h1.978v.724h-1.978v.826h2.978v.725zm6.262-3.123c-.705 0-1.07.145-1.07.394q.002.194.29.27.637.097 1.281.114c1.06.108 1.57.394 1.57 1.131 0 .816-.693 1.304-1.977 1.304a3.42 3.42 0 0 1-2.197-.704l.449-.614c.52.374 1.144.577 1.785.58.683 0 1.066-.217 1.066-.525 0-.332-.434-.332-1.158-.368-1.32-.062-1.968-.352-1.968-1.109 0-.756.666-1.203 1.889-1.203a3.3 3.3 0 0 1 1.992.55l-.47.604a2.8 2.8 0 0 0-1.486-.421m6.186-.003c-.708 0-1.073.145-1.073.394 0 .13.101.219.29.27q.637.097 1.282.114c1.06.108 1.57.394 1.57 1.131 0 .816-.693 1.304-1.977 1.304a3.42 3.42 0 0 1-2.197-.704l.447-.614a3.1 3.1 0 0 0 1.787.58c.683 0 1.065-.217 1.065-.525 0-.332-.434-.332-1.158-.368-1.32-.062-1.969-.352-1.969-1.109 0-.756.663-1.203 1.89-1.203a3.3 3.3 0 0 1 1.99.55l-.468.604a2.8 2.8 0 0 0-1.486-.421m4.613.044-.744 1.544h1.488zm1.476 3.076-.386-.812h-2.167l-.388.812h-.833l1.8-3.767h1.013l1.796 3.767zm4.73-1.13a.442.442 0 0 0-.495-.446h-2.074v.85h2.06c.331 0 .509-.145.509-.405m-.172-1.548a.35.35 0 0 0-.227-.342.4.4 0 0 0-.144-.021h-2.026v.743h2.06a.356.356 0 0 0 .337-.38m1.013 1.594c0 .623-.486 1.08-1.281 1.08h-2.954v-3.766h2.857a1.26 1.26 0 0 1 .967.446 1 1 0 0 1 .227.64.85.85 0 0 1-.344.724.97.97 0 0 1 .524.869m.882 1.092V80.39h.82v3.042h2.605v.725zm4.04 0V80.39h3.67v.724h-2.848v.768h1.977v.724h-1.977v.826h2.977v.725zm6.26-3.123c-.707 0-1.07.145-1.07.394 0 .13.1.219.29.27q.637.097 1.281.114c1.06.108 1.57.394 1.57 1.131 0 .816-.691 1.304-1.977 1.304a3.42 3.42 0 0 1-2.197-.704l.447-.614a3.1 3.1 0 0 0 1.787.58c.683 0 1.065-.217 1.065-.525 0-.332-.434-.332-1.158-.368-1.32-.062-1.969-.352-1.969-1.109 0-.756.663-1.203 1.89-1.203a3.3 3.3 0 0 1 1.99.55l-.468.604a2.8 2.8 0 0 0-1.486-.421m7.609 1.914a1.13 1.13 0 0 0 .211-.649 1.1 1.1 0 0 0-.307-.84 1.12 1.12 0 0 0-.823-.345h-1.506v2.318h1.504a1.14 1.14 0 0 0 .917-.484m1.075-.633a1.75 1.75 0 0 1-.604 1.36 2.02 2.02 0 0 1-1.331.478h-2.38v-3.766h2.267a1.863 1.863 0 0 1 2.052 1.93m.649-.414h-.196v-.434h.051c.223 0 .332-.051.332-.193v-.162h-.404v-.725h.869v.882a.578.578 0 0 1-.646.63m3.595-.895a1.276 1.276 0 0 0-.659 2.23 1.28 1.28 0 0 0 1.368.197 1.28 1.28 0 0 0 .745-1.165 1.3 1.3 0 0 0-.446-.957 1.3 1.3 0 0 0-1.008-.305m1.716 2.64a2.7 2.7 0 0 1-3.436 0 1.91 1.91 0 0 1 0-2.745 2.68 2.68 0 0 1 3.431 0 1.9 1.9 0 0 1 .586 1.372 1.9 1.9 0 0 1-.586 1.372m1.501.509V80.39h.823v3.042h2.605v.725zm5.963-3.148a1.29 1.29 0 0 0-1.326.738 1.3 1.3 0 0 0-.121.523 1.468 1.468 0 1 0 1.447-1.261m1.716 2.64a2.696 2.696 0 0 1-3.436 0 1.91 1.91 0 0 1 0-2.745 2.68 2.68 0 0 1 3.432 0 1.9 1.9 0 0 1 .584 1.372 1.9 1.9 0 0 1-.584 1.372m4.634.509-2.296-2.685h-.013v2.685h-.823V80.39h.959l2.294 2.69h.021v-2.685h.821v3.767zm5.182 0-2.296-2.685h-.014v2.685h-.817V80.39h.956l2.297 2.69h.02v-2.685h.821v3.767zm2.046 0V80.39h3.671v.724h-2.849v.768h1.978v.724h-1.978v.826h2.979v.725zM61.5 74.408a13 13 0 0 1-7.572-2.239 8.11 8.11 0 0 1-3.474-6.687 8.12 8.12 0 0 1 3.521-6.662 12.85 12.85 0 0 1 7.756-2.261 11.73 11.73 0 0 1 9.308 4.033l.236.264-3.093 1.5-.133-.144a8.64 8.64 0 0 0-6.55-2.649 9.26 9.26 0 0 0-5.21 1.488 5.24 5.24 0 0 0-2.398 4.426c0 3.537 3.06 5.914 7.614 5.914 3.318 0 5.733-1.304 6.847-3.687h-7.7v-2.983h11.85v.513c0 5.487-4.423 9.174-11.002 9.174m15.22-.475V57.076h3.32v13.867h13.117l-1.185 2.99zm27.903-14.363c-4.51 0-7.66 2.432-7.66 5.913 0 3.593 3.008 5.914 7.66 5.914 4.554 0 7.613-2.377 7.613-5.914a5.25 5.25 0 0 0-2.399-4.427 9.13 9.13 0 0 0-5.211-1.485m0 14.838a13.05 13.05 0 0 1-7.598-2.24 8.08 8.08 0 0 1-3.501-6.686 8.08 8.08 0 0 1 3.547-6.663 13.69 13.69 0 0 1 15.074 0 8.13 8.13 0 0 1 3.525 6.68 8.11 8.11 0 0 1-3.504 6.691 12.87 12.87 0 0 1-7.547 2.215m38.67-.473V57.076h17.492v2.988h-14.172v3.64h9.973l-1.179 2.995h-8.794v4.248h14.827v2.99zm-20.083-8.429 1.676-1.594h7.744a2.22 2.22 0 0 0 2.461-1.944c0-1.172-.896-1.9-2.339-1.9h-9.542zm9.207 5.439c2.838 0 3.219-.984 3.219-1.943 0-1.449-.855-2.102-2.777-2.102h-9.649v4.045zm-12.53 2.99V57.076h12.693c3.548 0 5.752 1.811 5.752 4.73a3.8 3.8 0 0 1-1.851 3.395 4.225 4.225 0 0 1 2.547 4.183c0 2.074-1.159 4.549-6.632 4.549z"/><path fill="#E00A17" d="M97.647 3.776c-5.936 5.4-5.627 14.81-2.48 24.32 5.965-11.416 27.465-18.183 27.465-18.183a74 74 0 0 0-18.199-8.901 13.6 13.6 0 0 0-6.787 2.764"/><path fill="#E00A17" d="M198.39 28.05C178.977 11.688 133.903.348 112.83.416c12.033 3.066 27.01 12.858 40.987 27.926 22.423 24.171 34.442 53.46 28.884 68.614 11.526-9.505 40.518-47.98 15.694-68.906"/><path fill="#fff" d="M188.357 44.147c.062-.136.193-.216.251-.356.24-.226.434-.58.826-.58a3.1 3.1 0 0 1 1.108-.137c.517-.042 1.025 0 1.496 0q.31-.017.619.013c.086-.067.176.046.262-.022a19 19 0 0 1 3.066.145c.116-.009.222 0 .36 0q.672.11 1.355.081c.408-.014.887-.06 1.303-.117.047.049.094-.016.145-.016.201.017.401-.026.579-.123 0 .05.05-.008.055.034-.063.09-.055.223-.199.247l-.328.408a4 4 0 0 0-.454.49c-.266.34-.462.75-.89.885q-.455.048-.886.202c-.081-.02-.091.073-.178.039-.066.055-.174.021-.242.066a7 7 0 0 1-1.222.24c-1.549.03-2.982-.163-4.595-.049-.685.034-1.447.034-2.115.008-.166-.067-.351-.023-.459-.199-.029-.104-.117-.18-.09-.31-.06-.117.008-.246-.019-.373.032-.213.119-.414.255-.58"/><path fill="#fff" d="M186.326 49.052a5.13 5.13 0 0 0 .115 3.743q.121.258.198.53.134.187.212.4c.138.29.311.58.456.881a23.6 23.6 0 0 0 4.256 5.35q.085.097.194.166.691.672 1.495 1.204c.061.026.09.111.171.097a5.5 5.5 0 0 0 1.218-1.26c.289-.33.535-.697.833-1.015q.66-.829 1.231-1.722c.098-.173.218-.33.298-.509.145-.163.172-.411.323-.565-.026-.066.035-.101.062-.132.136-.315.256-.654.358-.972q.151-.338.214-.7c.04-.256.123-.483.165-.725q.078-.693.028-1.388a1.3 1.3 0 0 0-.066-.475c-.056-.069.015-.145-.051-.202a4.5 4.5 0 0 0-.392-1.144 6.8 6.8 0 0 0-1.261-1.807l-.159-.136c0 .117.247.398.235.529.271.676.329 1.42.167 2.13a8.62 8.62 0 0 1-2.878 4.67c-.377.29-.702.662-1.09.93a.8.8 0 0 1-.222.172 3.6 3.6 0 0 1-.459.379 4 4 0 0 1-.579.317c-.111-.008-.183-.106-.253-.178.014-.04.048-.027.095-.054.366-.35.876-.607 1.139-1.088a1 1 0 0 0 .161-.209 5.8 5.8 0 0 0 .792-1.408c.112-.212.178-.435.298-.65s.121-.492.224-.725a7 7 0 0 1 .144-.614c-.015-.191.103-.358.103-.56a4.13 4.13 0 0 0-1.394-3.163 3.9 3.9 0 0 0-1.426-1.006c0-.013-.137-.042-.109-.022l.023.032q.345.508.58 1.075c.132.371-.145.674-.186 1.027-.085.15-.201.28-.338.381-.051 0-.093.102-.152.042q-.108.159-.262.271c-.159-.011-.199.213-.331.255-.228 0-.238.297-.469.303-.09.274-.411.26-.533.501-.084.037-.183.044-.246.125-.019.019-.075.04-.081-.013a3.4 3.4 0 0 0 .124-1.001 4.2 4.2 0 0 0-.795-1.501 3 3 0 0 0-1.054-.87 1.64 1.64 0 0 0-.869-.305c-.055.16-.192.29-.2.468a.3.3 0 0 0-.063.145m-6.408 1.76a4.8 4.8 0 0 1 .625-1.178q.257-.311.579-.558c.356-.346.812-.568 1.182-.869.165-.123.396-.17.435-.413-.044-1.036-.443-2.063-.396-3.096 0-.356.104-.743.104-1.068q.42-.804.954-1.54a5.6 5.6 0 0 1 .681-.994c.27-.235.588-.41.932-.51q.197-.084.401-.144a16 16 0 0 1 2.548-.428c.365-.027.724-.088 1.08-.11a.6.6 0 0 0 .204-.042 20 20 0 0 1-.194-2.108 13 13 0 0 0-1.971.07.12.12 0 0 1-.091-.116c.2-.684.793-1.187 1.06-1.834.185-.22.251-.476.427-.69q.41.008.811-.088c.094-.125.094-.29.194-.409.222-.132.423-.323.653-.45.206-.173.453-.263.665-.434a5 5 0 0 0 .587-.37c.161-.089.301-.21.475-.299l.063.067a5.2 5.2 0 0 0-.344 1.82l.042.049a6.8 6.8 0 0 0 1.523-.11c.145.036.303-.087.463-.057.434-.133.96-.145 1.386-.303a.23.23 0 0 1 .145-.087c0 .174-.183.305-.253.454q-.097.236-.271.423c-.049.187-.241.316-.268.51q-.165.302-.368.58c-.111.2-.145.49-.388.605-.057.032-.145.027-.18.091-.579.094-1.066.354-1.647.435l-.082.026a5.3 5.3 0 0 1-.114 1.867.76.76 0 0 0-.297.187.8.8 0 0 0-.263.184c.546.071 1.088.06 1.637.113.806.023 1.571.081 2.377.074l.021.015q.096-.004.191-.022a7.7 7.7 0 0 0 1.516-.067 7 7 0 0 0 1.131-.193c.117-.06.304 0 .394-.126.094-.09.069.04.032.105a7 7 0 0 1-.703.826c-.061.18-.267.29-.344.485-.226.239-.395.434-.64.69-.145.01-.235.139-.381.126a13 13 0 0 1-1.683.434c-.043.013-.104-.008-.128.042-.175 0-.352.035-.503.048-.579-.042-1.132.101-1.699.009-1.103.049-2.171-.164-3.261-.12a16 16 0 0 0-2.473.18 7 7 0 0 0-1.324.176c-.28.262-.194.87-.184 1.234.122.771.282 1.632.407 2.411-.345.739-1.171.929-1.751 1.449a3.57 3.57 0 0 0-1.404 2.53 7.14 7.14 0 0 0 1.123 4.592q.605 1.11 1.353 2.13a22 22 0 0 0 2.68 3.187l.056-.236c-.348-.45-.806-.924-1.127-1.384a22 22 0 0 1-1.633-2.518c-.09-.07-.061-.229-.18-.305-.049-.194-.183-.322-.239-.51-.097-.226-.201-.457-.281-.694a2.1 2.1 0 0 1-.198-.565 6 6 0 0 1-.229-.978 2 2 0 0 1-.068-.513 6.2 6.2 0 0 1 .434-2.304q.256-.531.634-.983c.153-.125.226-.313.405-.408.163-.203.363-.373.591-.5l.047-.075c.595-.349 1.132-.79 1.738-1.144a4 4 0 0 1 .42-.262c.145-.138.352-.227.505-.36.027 0 .054 0 .062-.036a1.77 1.77 0 0 1 1.486.346c.498.29.922.69 1.241 1.17.191-.09.29-.26.448-.367.478-.414.86-.801 1.358-1.204q.14-.12.254-.264c.245-.03.492.028.698.166a7.4 7.4 0 0 1 1.711 1.357.32.32 0 0 0 .208-.126c.339-.242.69-.525 1.013-.788.132-.071.208-.2.346-.264q.27-.26.592-.453l.116-.07a11.7 11.7 0 0 1 2.713 3.767.2.2 0 0 0 .006.087.2.2 0 0 0 .043.077c.284.872.323 1.807.111 2.7a9.8 9.8 0 0 1-1.857 4.015c-.357.503-.795.994-1.167 1.496l-.043.015c-.34.413-.695.773-1.046 1.159-.081.042-.145.154-.209.216-.405.331-.705.684-1.12 1.014-.368.29-.702.58-1.088.843q-.154.151-.329.278c.041.094.16.123.249.167a.28.28 0 0 1 .213.211c-.014.134-.145.153-.2.276a.2.2 0 0 1-.034.096.2.2 0 0 1-.076.067.34.34 0 0 0-.257.097.23.23 0 0 1-.106.145c-.115-.023-.2.074-.247.158 0 .094-.09.113-.152.145-.207-.016-.195.306-.421.264-.112.068-.088.207-.223.24-.116-.008-.178.105-.26.187a.14.14 0 0 1-.031.069.15.15 0 0 1-.062.043c-.119-.016-.184.102-.263.145a13 13 0 0 0-1.098-.657 25 25 0 0 1-2.279-1.963c-.212.04-.173.306-.4.255-.051.061-.177.087-.177.196-.082.078-.204.07-.305.117l-.081.145a.48.48 0 0 0-.371.264c-.076.074-.215 0-.255.108-.096.042-.109.212-.26.192-.216.16-.425.46-.737.29a25 25 0 0 1-3.506-3.795 10 10 0 0 1-.7-.985 18 18 0 0 1-.592-.952c-.132-.185-.203-.411-.348-.598a3.4 3.4 0 0 1-.205-.435 7.33 7.33 0 0 1-.92-4.25q.053-.523.212-1.027"/><path fill="#E00A17" d="M178.049 77.464s-6.326 11.025-44.185 10.914a51.74 51.74 0 0 0 20.33 10.418 51.7 51.7 0 0 0 22.83.646s4.671-5.956 1.025-21.978"/></svg>